<svg width="135" height="204" viewBox="0 0 135 204" fill="none" xmlns="http://www.w3.org/2000/svg">
<g clip-path="url(#clip0_6_68)">
<path d="M17.9148 184.986C20.0173 195.11 32.0016 182.666 32.0016 182.666L46.2986 180.978C46.2986 180.978 55.3394 181.189 61.2264 185.829C67.1134 190.469 71.1081 184.353 71.1081 184.353C77.7406 186.571 85.8664 186.562 92.9038 185.851C103.045 184.828 111.173 176.976 112.567 166.848C120.429 109.715 77.2053 81.6382 77.2053 81.6382L64.5903 47.4702C64.5903 47.4702 68.5851 37.5573 69.8466 28.6989C71.1081 19.8406 61.8571 11.404 50.5036 2.96748C45.5364 -0.723499 39.8449 -0.458208 35.0135 1.00809C29.5937 2.65299 24.866 6.03555 21.3726 10.506C18.4785 14.2096 13.5146 19.4549 8.05827 20.3636C6.17023 20.6758 4.30742 21.4266 2.56654 22.7933C0.766787 24.2064 -0.0279383 26.5645 -0.0531683 29.4962C-0.187733 42.3028 10.3542 57.7206 19.5968 60.125C30.9503 63.0778 24.8531 91.1292 24.8531 91.1292C6.35104 117.283 19.3866 146.389 19.3866 146.389L16.0226 170.011C16.0226 170.011 15.8123 174.862 17.9148 184.986Z" fill="#3F3D56"/>
<path d="M79.728 130.57L75.1025 188.36C75.1025 188.36 81.41 204.39 59.9645 203.546C38.519 202.702 51.134 169.8 51.134 169.8L57.862 126.774" fill="#3F3D56"/>
<path d="M61.5602 204C61.0358 204 60.4991 203.989 59.948 203.967C55.2005 203.781 51.7047 202.027 49.557 198.754C43.4166 189.398 50.2461 170.953 50.7253 169.691L57.4463 126.708C57.4825 126.478 57.696 126.323 57.9272 126.357C58.1563 126.393 58.3132 126.609 58.2775 126.839L51.5495 169.865C51.5445 169.895 51.5371 169.923 51.5265 169.951C51.453 170.142 44.272 189.168 50.26 198.291C52.25 201.323 55.5204 202.949 59.9808 203.125C66.9831 203.399 71.6928 201.9 73.9826 198.667C76.9782 194.436 74.7341 188.574 74.7111 188.515C74.6877 188.455 74.6782 188.39 74.6831 188.326L79.3086 130.536C79.3271 130.304 79.5259 130.135 79.7616 130.149C79.9932 130.168 80.1657 130.371 80.1472 130.604L75.5291 188.299C75.8346 189.126 77.7502 194.797 74.6716 199.15C72.3938 202.371 67.9863 204 61.5602 204Z" fill="#2F2E41"/>
<path d="M41.4629 142.381C41.4629 142.381 42.7244 195.953 16.2329 194.688C-10.2587 193.422 13.7098 176.549 13.7098 176.549L16.0226 170.011" fill="#3F3D56"/>
<path d="M17.1419 195.131C16.8343 195.131 16.5251 195.124 16.2126 195.109C8.64853 194.748 4.37475 193.048 3.51013 190.056C1.95256 184.666 12.1049 177.182 13.3578 176.282L15.6262 169.87C15.7038 169.65 15.944 169.536 16.1629 169.613C16.3818 169.691 16.4964 169.932 16.4188 170.152L14.106 176.69C14.0768 176.773 14.0226 176.844 13.9512 176.894C13.8403 176.973 2.85947 184.776 4.31808 189.822C5.07182 192.429 9.0871 193.924 16.2529 194.266C21.025 194.497 25.2082 192.887 28.679 189.487C41.6944 176.742 41.0505 142.733 41.0423 142.391C41.0369 142.158 41.2205 141.965 41.4529 141.959C41.6726 141.96 41.8775 142.139 41.8833 142.371C41.9165 143.783 42.5444 177.087 29.267 190.091C25.8492 193.438 21.7736 195.131 17.1419 195.131Z" fill="#2F2E41"/>
<path d="M-0.0532837 29.4961C2.9659 29.8588 7.69232 29.842 11.6072 27.2224C15.7996 24.4173 11.4474 21.8019 8.05816 20.3635C6.17012 20.6757 4.3073 21.4265 2.56643 22.7933C0.766671 24.2064 -0.0280537 26.5644 -0.0532837 29.4961Z" fill="#2F2E41"/>
<path d="M48.7368 21.9112C48.7368 21.9112 41.3992 3.00647 51.9084 2.74194C62.4176 2.47741 70.7185 18.8599 70.7185 18.8599C70.7185 18.8599 97.0956 67.0926 60.9571 64.4916C24.8186 61.8905 42.0877 42.6365 42.0877 42.6365C42.0877 42.6365 50.3301 32.4707 48.7368 21.9112Z" fill="#2F2E41"/>
<path d="M88.9954 163.184C93.6495 165.261 98.5121 167.38 103.602 167.177C108.692 166.975 114.048 163.687 114.841 158.639C115.25 156.033 114.438 153.238 115.433 150.796C116.771 147.511 121.087 146.244 124.442 147.37C127.797 148.496 130.262 151.399 132.03 154.473C135.336 160.226 136.661 167.776 133.116 173.383C130.042 178.244 124.213 180.441 118.791 182.325C111.569 184.834 103.506 187.325 96.5074 184.242C89.469 181.142 85.6351 172.185 88.2414 164.93" fill="#3F3D56"/>
<path d="M73.4686 72.0992C73.4686 72.0992 82.7196 76.7393 78.0941 81.8012C73.4686 86.8631 44.8746 101.205 34.362 99.0961C23.8495 96.9869 21.3265 90.6595 21.3265 88.9722C21.3265 87.2849 22.1195 66.8742 25.4835 67.7178C28.8475 68.5615 49.9206 87.7068 73.4686 72.0992Z" fill="#6C63FF"/>
</g>
<defs>
<clipPath id="clip0_6_68">
<rect width="135" height="204" fill="white"/>
</clipPath>
</defs>
</svg>
