<svg width="392" height="261" viewBox="0 0 392 261" fill="none" xmlns="http://www.w3.org/2000/svg">
<g clip-path="url(#clip0_10_105)">
<path d="M0 113.182C0 79.6263 27.2887 0 60.9511 0C94.6134 0 121.902 79.6263 121.902 113.182C121.902 129.296 115.481 144.75 104.05 156.145C92.6194 167.539 77.1163 173.94 60.9511 173.94C44.7858 173.94 29.2827 167.539 17.8522 156.145C6.42161 144.75 2.40881e-07 129.296 0 113.182Z" fill="#6C63FF"/>
<path d="M60.9511 261C60.8182 261 60.6907 260.947 60.5967 260.854C60.5027 260.76 60.45 260.633 60.45 260.5V51.026C60.45 50.8935 60.5027 50.7664 60.5967 50.6727C60.6907 50.579 60.8182 50.5264 60.9511 50.5264C61.0841 50.5264 61.2115 50.579 61.3055 50.6727C61.3995 50.7664 61.4523 50.8935 61.4523 51.026V260.5C61.4523 260.633 61.3995 260.76 61.3055 260.854C61.2115 260.947 61.0841 261 60.9511 261Z" fill="#3F3D56"/>
<path d="M60.951 91.4666C60.8852 91.4667 60.82 91.4538 60.7592 91.4286C60.6983 91.4035 60.6431 91.3667 60.5966 91.3202L36.4723 67.2723C36.4252 67.226 36.3879 67.1709 36.3623 67.1102C36.3367 67.0494 36.3234 66.9843 36.3232 66.9184C36.323 66.8525 36.3359 66.7872 36.3611 66.7263C36.3863 66.6654 36.4233 66.6101 36.4701 66.5635C36.5168 66.517 36.5723 66.4801 36.6334 66.4549C36.6945 66.4298 36.76 66.417 36.8261 66.4172C36.8921 66.4175 36.9575 66.4307 37.0185 66.4562C37.0794 66.4817 37.1347 66.519 37.1811 66.5658L61.3054 90.6137C61.3755 90.6836 61.4232 90.7726 61.4425 90.8695C61.4619 90.9664 61.4519 91.0669 61.414 91.1582C61.3761 91.2494 61.3118 91.3274 61.2294 91.3823C61.147 91.4372 61.0501 91.4666 60.951 91.4666Z" fill="#3F3D56"/>
<path d="M60.9511 133.098C60.852 133.098 60.7551 133.069 60.6727 133.014C60.5903 132.959 60.526 132.881 60.4881 132.79C60.4502 132.699 60.4402 132.598 60.4596 132.501C60.4789 132.404 60.5266 132.315 60.5967 132.246L100.997 91.9726C101.044 91.9257 101.099 91.8884 101.16 91.8629C101.221 91.8374 101.286 91.8242 101.352 91.824C101.418 91.8238 101.484 91.8366 101.545 91.8617C101.606 91.8868 101.662 91.9237 101.708 91.9703C101.755 92.0168 101.792 92.0722 101.817 92.1331C101.842 92.194 101.855 92.2592 101.855 92.3251C101.855 92.391 101.842 92.4562 101.816 92.5169C101.79 92.5777 101.753 92.6328 101.706 92.6791L61.3055 132.952C61.259 132.998 61.2038 133.035 61.143 133.06C61.0821 133.086 61.0169 133.098 60.9511 133.098Z" fill="#3F3D56"/>
<path d="M116.139 154.022C116.139 129.91 135.761 72.6919 159.967 72.6919C184.172 72.6919 203.795 129.91 203.795 154.022C203.787 165.604 199.166 176.709 190.947 184.896C182.729 193.083 171.585 197.682 159.967 197.682C148.348 197.682 137.205 193.083 128.986 184.896C120.768 176.709 116.147 165.604 116.139 154.022Z" fill="#E6E6E6"/>
<path d="M159.967 260.241C159.92 260.241 159.873 260.232 159.829 260.214C159.785 260.196 159.746 260.169 159.712 260.136C159.679 260.103 159.652 260.063 159.634 260.02C159.616 259.976 159.606 259.929 159.606 259.882V109.358C159.607 109.263 159.645 109.172 159.712 109.105C159.78 109.038 159.871 109 159.967 109C160.062 109 160.154 109.038 160.221 109.105C160.289 109.172 160.327 109.263 160.327 109.358V259.882C160.327 259.929 160.318 259.976 160.3 260.02C160.282 260.063 160.255 260.103 160.222 260.136C160.188 260.169 160.148 260.196 160.105 260.214C160.061 260.232 160.014 260.241 159.967 260.241Z" fill="#3F3D56"/>
<path d="M159.967 138.418C159.919 138.418 159.873 138.409 159.829 138.391C159.785 138.373 159.745 138.346 159.712 138.313L142.365 121.032C142.297 120.965 142.259 120.874 142.26 120.778C142.26 120.683 142.298 120.592 142.365 120.525C142.433 120.457 142.524 120.419 142.62 120.419C142.715 120.419 142.807 120.457 142.875 120.525L160.222 137.805C160.272 137.855 160.306 137.919 160.32 137.989C160.334 138.059 160.327 138.131 160.3 138.196C160.272 138.262 160.226 138.318 160.167 138.357C160.108 138.397 160.038 138.418 159.967 138.418Z" fill="#3F3D56"/>
<path d="M159.967 168.333C159.896 168.333 159.826 168.312 159.767 168.273C159.707 168.234 159.661 168.178 159.634 168.112C159.607 168.046 159.599 167.974 159.613 167.904C159.627 167.835 159.662 167.771 159.712 167.721L188.763 138.781C188.796 138.748 188.836 138.721 188.879 138.703C188.923 138.685 188.97 138.676 189.017 138.676C189.065 138.676 189.111 138.685 189.155 138.703C189.199 138.721 189.239 138.748 189.272 138.781C189.306 138.814 189.332 138.854 189.35 138.898C189.368 138.941 189.378 138.988 189.378 139.035C189.378 139.082 189.368 139.129 189.35 139.172C189.332 139.216 189.306 139.256 189.272 139.289L160.222 168.228C160.188 168.262 160.148 168.288 160.105 168.306C160.061 168.324 160.014 168.334 159.967 168.333Z" fill="#3F3D56"/>
<path d="M162.583 257.362C161.958 257.361 161.345 257.196 160.805 256.884C160.264 256.571 159.817 256.122 159.506 255.581C159.196 255.041 159.035 254.428 159.038 253.806C159.041 253.183 159.209 252.572 159.525 252.035L164.494 243.578L170.622 247.155L165.653 255.612C165.339 256.146 164.89 256.588 164.352 256.895C163.813 257.202 163.203 257.363 162.583 257.362Z" fill="#6C63FF"/>
<path d="M182.083 238.034C184.496 238.034 186.453 236.083 186.453 233.678C186.453 231.272 184.496 229.322 182.083 229.322C179.669 229.322 177.713 231.272 177.713 233.678C177.713 236.083 179.669 238.034 182.083 238.034Z" fill="#6C63FF"/>
<path d="M143.357 257.362C142.732 257.361 142.118 257.196 141.578 256.884C141.038 256.571 140.59 256.122 140.28 255.581C139.97 255.041 139.808 254.428 139.812 253.805C139.815 253.183 139.983 252.572 140.299 252.035L145.268 243.578L151.395 247.155L146.426 255.612C146.112 256.146 145.664 256.588 145.125 256.895C144.587 257.202 143.977 257.363 143.357 257.362Z" fill="#6C63FF"/>
<path d="M171.966 251.71H149.948C146.952 251.706 144.079 250.518 141.96 248.406C139.842 246.294 138.65 243.43 138.646 240.443V237.109C138.648 236.072 139.062 235.077 139.797 234.344C140.533 233.61 141.531 233.198 142.571 233.197H171.966C174.429 233.197 176.791 234.172 178.532 235.908C180.274 237.644 181.252 239.998 181.252 242.453C181.252 244.908 180.274 247.262 178.532 248.998C176.791 250.734 174.429 251.71 171.966 251.71Z" fill="#3F3D56"/>
<path d="M170.923 260.242C169.982 260.241 169.079 259.868 168.414 259.205C167.748 258.541 167.374 257.641 167.373 256.703V246.902H174.474V256.703C174.472 257.641 174.098 258.541 173.432 259.205C172.767 259.868 171.864 260.241 170.923 260.242Z" fill="#3F3D56"/>
<path d="M150.318 260.242C149.377 260.241 148.474 259.868 147.809 259.205C147.143 258.541 146.769 257.641 146.768 256.703V246.902H153.869V256.703C153.867 257.641 153.493 258.541 152.827 259.205C152.162 259.868 151.259 260.241 150.318 260.242Z" fill="#3F3D56"/>
<path d="M132.161 226.841L125.347 232.297L118.164 223.381C117.442 222.48 117.107 221.331 117.234 220.184C117.362 219.038 117.939 217.989 118.842 217.266C119.744 216.544 120.896 216.208 122.046 216.332C123.197 216.455 124.251 217.029 124.978 217.926L132.161 226.841Z" fill="#6C63FF"/>
<path d="M141.796 239.904L130.527 248.927C129.875 249.447 129.042 249.689 128.212 249.599C127.381 249.508 126.621 249.093 126.097 248.445L121.356 242.56C119.692 240.491 118.92 237.848 119.209 235.212C119.498 232.575 120.823 230.161 122.896 228.498L124.694 227.058C126.435 225.668 128.659 225.022 130.877 225.264C133.095 225.505 135.126 226.613 136.526 228.346L142.28 235.488C142.802 236.138 143.045 236.968 142.954 237.796C142.864 238.624 142.447 239.382 141.796 239.904Z" fill="#3F3D56"/>
<path d="M132.16 226.841L127.476 230.592L119.438 220.615C118.939 219.996 118.707 219.205 118.794 218.415C118.88 217.626 119.278 216.903 119.899 216.405C120.52 215.908 121.314 215.677 122.106 215.763C122.898 215.849 123.624 216.246 124.122 216.865L132.16 226.841Z" fill="#3F3D56"/>
<path d="M141.11 240.333L128.76 250.221C127.856 250.941 126.702 251.274 125.552 251.148C124.402 251.021 123.349 250.445 122.625 249.546C121.9 248.647 121.563 247.498 121.687 246.351C121.811 245.204 122.387 244.153 123.287 243.429L135.637 233.541L141.11 240.333Z" fill="#3F3D56"/>
<path d="M124.041 250.669C124.482 250.316 124.322 249.388 123.685 248.597C123.047 247.805 122.173 247.45 121.732 247.803C121.291 248.156 121.45 249.084 122.088 249.875C122.725 250.666 123.6 251.022 124.041 250.669Z" fill="#6C63FF"/>
<path d="M88.9944 254.466C88.9944 255.857 88.44 257.191 87.4531 258.175C86.4662 259.159 85.1277 259.711 83.732 259.711C80.8256 259.711 80.7249 257.088 82.9802 254.466C80.7249 252.967 80.8256 249.22 83.732 249.22C85.1277 249.22 86.4662 249.772 87.4531 250.756C88.44 251.74 88.9944 253.074 88.9944 254.466Z" fill="#CCCCCC"/>
<path d="M104.03 254.466C104.03 255.857 104.584 257.191 105.571 258.175C106.558 259.159 107.897 259.711 109.292 259.711C112.199 259.711 112.299 257.088 110.044 254.466C112.299 252.967 112.199 249.22 109.292 249.22C107.897 249.22 106.558 249.772 105.571 250.756C104.584 251.74 104.03 253.074 104.03 254.466Z" fill="#CCCCCC"/>
<path d="M107.037 251.843H85.9873V257.088H107.037V251.843Z" fill="#CCCCCC"/>
<path d="M391.499 260.711H17.6142C17.4813 260.711 17.3538 260.658 17.2598 260.564C17.1658 260.471 17.113 260.344 17.113 260.211C17.113 260.079 17.1658 259.951 17.2598 259.858C17.3538 259.764 17.4813 259.711 17.6142 259.711H391.499C391.632 259.711 391.759 259.764 391.853 259.858C391.947 259.951 392 260.079 392 260.211C392 260.344 391.947 260.471 391.853 260.564C391.759 260.658 391.632 260.711 391.499 260.711Z" fill="#3F3D56"/>
<path d="M302.952 161.61C307.049 161.61 310.37 158.3 310.37 154.216C310.37 150.133 307.049 146.822 302.952 146.822C298.856 146.822 295.535 150.133 295.535 154.216C295.535 158.3 298.856 161.61 302.952 161.61Z" fill="#A0616A"/>
<path d="M302.473 195.668C302.33 195.224 302.283 194.754 302.334 194.291C302.386 193.827 302.535 193.379 302.773 192.977C303.01 192.575 303.33 192.227 303.711 191.956C304.093 191.686 304.527 191.499 304.986 191.408C305.132 191.379 305.279 191.361 305.427 191.354L313.24 178.853L306.103 172.09C305.831 171.831 305.612 171.522 305.46 171.178C305.308 170.835 305.226 170.466 305.218 170.091C305.21 169.716 305.277 169.343 305.414 168.994C305.552 168.645 305.758 168.326 306.019 168.057C306.281 167.787 306.594 167.572 306.939 167.424C307.285 167.275 307.656 167.197 308.033 167.192C308.409 167.188 308.782 167.258 309.131 167.398C309.48 167.539 309.798 167.746 310.066 168.01L319.92 177.695L319.94 177.72C320.245 178.182 320.392 178.73 320.359 179.282C320.327 179.835 320.117 180.362 319.76 180.786L308.813 193.692C308.845 193.796 308.872 193.901 308.894 194.007C308.986 194.465 308.979 194.937 308.875 195.392C308.771 195.847 308.572 196.275 308.29 196.647C308.009 197.02 307.651 197.329 307.241 197.555C306.831 197.78 306.378 197.917 305.912 197.956C305.818 197.964 305.724 197.968 305.63 197.968C304.928 197.965 304.245 197.741 303.678 197.328C303.111 196.915 302.689 196.334 302.473 195.668Z" fill="#A0616A"/>
<path d="M290.736 257.123H287.033L285.272 242.886L290.736 242.887L290.736 257.123Z" fill="#A0616A"/>
<path d="M291.831 260.851L279.591 260.851V260.55C279.591 259.922 279.715 259.3 279.956 258.719C280.197 258.139 280.55 257.612 280.996 257.168C281.441 256.724 281.97 256.371 282.552 256.131C283.134 255.891 283.758 255.767 284.388 255.767L291.831 255.767L291.831 260.851Z" fill="#2F2E41"/>
<path d="M327.536 252.02L324.355 253.908L315.535 242.575L320.23 239.788L327.536 252.02Z" fill="#A0616A"/>
<path d="M319.873 260.907L319.719 260.648C319.068 259.558 318.878 258.255 319.191 257.026C319.503 255.796 320.293 254.741 321.387 254.092L327.782 250.296L330.391 254.665L319.873 260.907Z" fill="#2F2E41"/>
<path d="M284.805 250.853C282.325 221.74 280.849 194.695 289.916 183.662L289.986 183.576L305.245 189.661L305.27 189.715C305.322 189.827 310.396 200.954 309.213 208.438L312.976 225.697L325.248 246.18C325.347 246.345 325.41 246.529 325.432 246.72C325.454 246.911 325.435 247.104 325.376 247.287C325.318 247.47 325.221 247.639 325.092 247.781C324.963 247.924 324.805 248.038 324.629 248.116L319.296 250.454C318.995 250.585 318.657 250.603 318.344 250.506C318.03 250.408 317.763 250.201 317.59 249.923L304.24 228.223L296.7 211.58C296.659 211.489 296.589 211.415 296.502 211.368C296.414 211.321 296.314 211.304 296.215 211.32C296.117 211.336 296.027 211.383 295.958 211.455C295.89 211.527 295.847 211.619 295.837 211.718L291.657 250.883C291.622 251.216 291.464 251.524 291.215 251.748C290.965 251.972 290.641 252.095 290.306 252.095H286.16C285.819 252.093 285.492 251.964 285.242 251.735C284.991 251.505 284.835 251.191 284.805 250.853Z" fill="#2F2E41"/>
<path d="M289.967 183.892L289.895 183.858L289.883 183.778C289.313 179.801 289.988 175.383 291.889 170.645C292.825 168.326 294.567 166.42 296.795 165.274C299.024 164.128 301.591 163.818 304.03 164.4C305.434 164.745 306.752 165.377 307.899 166.256C309.045 167.136 309.997 168.242 310.692 169.507C311.378 170.759 311.796 172.139 311.92 173.56C312.043 174.981 311.869 176.413 311.409 177.763C309.012 184.748 305.904 191.283 305.873 191.348L305.808 191.484L289.967 183.892Z" fill="#6C63FF"/>
<path d="M278.988 200.385C278.883 199.582 279.071 198.768 279.517 198.091C279.963 197.414 280.639 196.92 281.42 196.697L295.689 169.39C295.876 169.083 296.123 168.817 296.414 168.605C296.705 168.394 297.036 168.242 297.386 168.158C297.737 168.075 298.1 168.061 298.456 168.118C298.812 168.174 299.153 168.301 299.459 168.49C299.766 168.678 300.032 168.925 300.242 169.217C300.453 169.509 300.603 169.839 300.685 170.188C300.767 170.538 300.779 170.901 300.72 171.255C300.661 171.609 300.532 171.948 300.341 172.253L285.735 199.37C285.766 199.535 285.784 199.702 285.79 199.87C285.802 200.328 285.721 200.785 285.552 201.211C285.384 201.638 285.13 202.026 284.807 202.353C284.483 202.679 284.097 202.937 283.672 203.111C283.246 203.285 282.789 203.372 282.329 203.365C281.825 203.358 281.328 203.24 280.875 203.018C280.422 202.797 280.024 202.479 279.709 202.086C279.314 201.597 279.064 201.008 278.988 200.385Z" fill="#A0616A"/>
<path d="M293.959 150.04H305.737V144.922C303.152 143.898 300.622 143.027 299.093 144.922C297.731 144.922 296.425 145.461 295.462 146.421C294.5 147.381 293.959 148.682 293.959 150.04Z" fill="#2F2E41"/>
<path d="M306.389 144.019C313.43 144.019 315.401 152.817 315.401 157.78C315.401 160.548 314.145 161.538 312.172 161.873L311.475 158.168L309.843 162.033C309.288 162.035 308.706 162.025 308.102 162.013L307.549 160.877L306.315 161.993C301.372 162 297.377 162.719 297.377 157.78C297.377 152.817 299.106 144.019 306.389 144.019Z" fill="#2F2E41"/>
</g>
<defs>
<clipPath id="clip0_10_105">
<rect width="392" height="261" fill="white"/>
</clipPath>
</defs>
</svg>
